<?xml version="1.0" encoding="UTF-8"?>
<svg version="1.1" xmlns="http://www.w3.org/2000/svg" width="116" height="110">
<path d="M0 0 C38.28 0 76.56 0 116 0 C116 36.3 116 72.6 116 110 C77.72 110 39.44 110 0 110 C0 73.7 0 37.4 0 0 Z " fill="#F6F6F6" transform="translate(0,0)"/>
<path d="M0 0 C1.67542976 0.28604898 3.34385343 0.61781233 5 1 C5.495 3.475 5.495 3.475 6 6 C5.01 6.33 4.02 6.66 3 7 C3 8.32 3 9.64 3 11 C4.299375 10.87625 4.299375 10.87625 5.625 10.75 C11.01715489 11.14941888 14.27833536 13.99751697 17.75 17.9375 C20.50613656 21.6889081 22 24.32881991 22 29 C22.99 29 23.98 29 25 29 C25.495 27.515 25.495 27.515 26 26 C27.65 26.33 29.3 26.66 31 27 C31.495 29.475 31.495 29.475 32 32 C29 34 29 34 26.8125 33.625 C26.214375 33.41875 25.61625 33.2125 25 33 C25 32.34 25 31.68 25 31 C24.01 31 23.02 31 22 31 C21.9071875 32.2375 21.9071875 32.2375 21.8125 33.5 C20.45396524 39.35214974 17.7509942 44.25575307 12.5625 47.5 C9.01245168 48.99475719 6.7971283 49.37045154 3 49 C3 50.32 3 51.64 3 53 C3.99 53.33 4.98 53.66 6 54 C5.67 55.65 5.34 57.3 5 59 C2.625 59.625 2.625 59.625 0 60 C-0.66 59.34 -1.32 58.68 -2 58 C-1.625 55.375 -1.625 55.375 -1 53 C-0.34 53 0.32 53 1 53 C1 51.68 1 50.36 1 49 C-0.2375 49.1546875 -0.2375 49.1546875 -1.5 49.3125 C-6.29517271 48.88435958 -9.35539237 47.09286533 -13 44 C-16.16101912 40.10533461 -17.51465882 35.97474708 -18 31 C-18.7425 31.515625 -19.485 32.03125 -20.25 32.5625 C-23 34 -23 34 -25.3125 33.6875 C-25.869375 33.460625 -26.42625 33.23375 -27 33 C-27.625 30.625 -27.625 30.625 -28 28 C-27.34 27.34 -26.68 26.68 -26 26 C-23.375 26.375 -23.375 26.375 -21 27 C-21 27.66 -21 28.32 -21 29 C-20.01 29 -19.02 29 -18 29 C-17.9175 28.13375 -17.835 27.2675 -17.75 26.375 C-16.26790006 19.70555029 -12.22642017 15.97662404 -7 12 C-4.29120665 10.64560332 -1.99066732 10.93498549 1 11 C1 9.68 1 8.36 1 7 C0.01 6.67 -0.98 6.34 -2 6 C-1.125 1.125 -1.125 1.125 0 0 Z " fill="#68C3DF" transform="translate(59,28)"/>
<path d="M0 0 C1.67542976 0.28604898 3.34385343 0.61781233 5 1 C5.495 3.475 5.495 3.475 6 6 C5.01 6.33 4.02 6.66 3 7 C3 8.32 3 9.64 3 11 C4.299375 10.87625 4.299375 10.87625 5.625 10.75 C11.01715489 11.14941888 14.27833536 13.99751697 17.75 17.9375 C20.50613656 21.6889081 22 24.32881991 22 29 C22.99 29 23.98 29 25 29 C25.495 27.515 25.495 27.515 26 26 C27.65 26.33 29.3 26.66 31 27 C31.495 29.475 31.495 29.475 32 32 C29 34 29 34 26.8125 33.625 C26.214375 33.41875 25.61625 33.2125 25 33 C25 32.34 25 31.68 25 31 C24.01 31 23.02 31 22 31 C21.9071875 32.2375 21.9071875 32.2375 21.8125 33.5 C20.45396524 39.35214974 17.7509942 44.25575307 12.5625 47.5 C9.01245168 48.99475719 6.7971283 49.37045154 3 49 C3 50.32 3 51.64 3 53 C3.99 53.33 4.98 53.66 6 54 C5.67 55.65 5.34 57.3 5 59 C2.625 59.625 2.625 59.625 0 60 C-0.66 59.34 -1.32 58.68 -2 58 C-1.625 55.375 -1.625 55.375 -1 53 C-0.34 53 0.32 53 1 53 C1 51.68 1 50.36 1 49 C-0.2375 49.1546875 -0.2375 49.1546875 -1.5 49.3125 C-6.29517271 48.88435958 -9.35539237 47.09286533 -13 44 C-16.16101912 40.10533461 -17.51465882 35.97474708 -18 31 C-18.7425 31.515625 -19.485 32.03125 -20.25 32.5625 C-23 34 -23 34 -25.3125 33.6875 C-25.869375 33.460625 -26.42625 33.23375 -27 33 C-27.625 30.625 -27.625 30.625 -28 28 C-27.34 27.34 -26.68 26.68 -26 26 C-23.375 26.375 -23.375 26.375 -21 27 C-21 27.66 -21 28.32 -21 29 C-20.01 29 -19.02 29 -18 29 C-17.9175 28.13375 -17.835 27.2675 -17.75 26.375 C-16.26790006 19.70555029 -12.22642017 15.97662404 -7 12 C-4.29120665 10.64560332 -1.99066732 10.93498549 1 11 C1 9.68 1 8.36 1 7 C0.01 6.67 -0.98 6.34 -2 6 C-1.125 1.125 -1.125 1.125 0 0 Z M-13 19 C-16.49626919 24.01131917 -16.95217992 29.07634222 -16 35 C-13.90326221 40.58159366 -10.27847533 44.28343584 -5.10546875 47.15625 C0.42386932 49.37208863 5.80334928 48.28450875 11.17578125 46.046875 C15.06409413 43.81546632 17.1636665 40.51336538 19.3125 36.625 C20.99167713 30.21359642 20.38133642 25.46516399 17.203125 19.7578125 C14.4145904 15.68365481 10.68986078 13.33996022 6 12 C-2.08648219 11.4118922 -7.19514047 13.32413735 -13 19 Z " fill="#1A1D1D" transform="translate(59,28)"/>
<path d="M0 0 C3.39488422 2.05107588 4.80323081 3.70484621 7 7 C7.125 10.1875 7.125 10.1875 7 13 C1.21370775 16.96774326 -5.18270307 16.67820654 -12 16 C-14.33984375 15.12109375 -14.33984375 15.12109375 -16 14 C-17.38419287 10.67793712 -17.09696461 9.25517003 -15.8125 5.875 C-11.79225869 -0.5019345 -7.12984834 -1.06312163 0 0 Z " fill="#101214" transform="translate(66,56)"/>
<path d="M0 0 C5.84085674 0.40281771 9.37735881 1.112779 14 5 C18.13464078 10.47560535 19.88354902 15.11568054 19 22 C17.22496684 27.33474641 14.7355577 30.84296153 10 34 C9.67 33.34 9.34 32.68 9 32 C9.495 31.62875 9.99 31.2575 10.5 30.875 C12.24257285 29.0171668 12.24257285 29.0171668 12.4375 26.125 C11.77440084 21.3885774 9.38575355 19.11630147 5.75 16.1875 C5.1725 15.795625 4.595 15.40375 4 15 C4.33 14.29875 4.66 13.5975 5 12.875 C6.09044562 9.73996884 6.15322643 7.29436818 6 4 C3.69 3.34 1.38 2.68 -1 2 C-0.67 1.34 -0.34 0.68 0 0 Z " fill="#6AC8E4" transform="translate(60,40)"/>
<path d="M0 0 C0.99 0 1.98 0 3 0 C3.66 2.97 4.32 5.94 5 9 C6.32 9 7.64 9 9 9 C9 6.69 9 4.38 9 2 C10.65 1.34 12.3 0.68 14 0 C16.09749995 2.35968744 16.96905704 3.54616994 17.1875 6.75 C17.0946875 7.86375 17.0946875 7.86375 17 9 C11.15537475 12.17642677 6.50418979 12.51233784 0 11 C-0.99 10.34 -1.98 9.68 -3 9 C-2.5020163 5.26512223 -2.12508244 3.18762365 0 0 Z " fill="#DADBDD" transform="translate(54,59)"/>
<path d="M0 0 C1.67542976 0.28604898 3.34385343 0.61781233 5 1 C5.33 2.65 5.66 4.3 6 6 C5.01 6.33 4.02 6.66 3 7 C3 8.32 3 9.64 3 11 C4.299375 10.87625 4.299375 10.87625 5.625 10.75 C11.09213214 11.15497275 14.37636476 14.11770654 17.9375 18.0625 C18.618125 19.031875 19.29875 20.00125 20 21 C19.505 22.485 19.505 22.485 19 24 C18.47212891 23.18595703 18.47212891 23.18595703 17.93359375 22.35546875 C14.53375995 17.42881664 11.97098225 14.67606519 6 13 C-0.00046991 12.47364299 -4.4193506 13.5253432 -9.625 16.5 C-13.06766334 20.12385615 -14.40202967 24.32214273 -16 29 C-16.33 29 -16.66 29 -17 29 C-17.50791521 23.66689031 -16.34625913 21.13879419 -13 17 C-8.32563644 12.56412438 -5.48473067 10.85902759 1 11 C1 9.68 1 8.36 1 7 C0.01 6.67 -0.98 6.34 -2 6 C-1.125 1.125 -1.125 1.125 0 0 Z " fill="#13191B" transform="translate(59,28)"/>
<path d="M0 0 C2.72274244 0.95295985 3.97489421 1.41788511 5.5 3.875 C5.27669287 7.52234979 5.11627165 9.25872835 2.5 11.875 C-0.4375 12.25 -0.4375 12.25 -3.5 11.875 C-5.4375 10.1875 -5.4375 10.1875 -6.5 7.875 C-6.36008938 5.00683219 -5.83903136 3.38354704 -4.25 1 C-2.5 -0.125 -2.5 -0.125 0 0 Z " fill="#1A2324" transform="translate(61.5,42.125)"/>
<path d="M0 0 C2 3 2 3 2 6 C2.99 6 3.98 6 5 6 C5.33 5.01 5.66 4.02 6 3 C7.65 3.33 9.3 3.66 11 4 C11.33 5.65 11.66 7.3 12 9 C9 11 9 11 6.8125 10.625 C6.214375 10.41875 5.61625 10.2125 5 10 C5 9.34 5 8.68 5 8 C4.01 8 3.02 8 2 8 C1.67 9.32 1.34 10.64 1 12 C0.67 12 0.34 12 0 12 C-0.19401633 10.18818595 -0.38004375 8.37551468 -0.5625 6.5625 C-0.66691406 5.55316406 -0.77132812 4.54382812 -0.87890625 3.50390625 C-0.91886719 2.67761719 -0.95882812 1.85132813 -1 1 C-0.67 0.67 -0.34 0.34 0 0 Z " fill="#262829" transform="translate(79,51)"/>
<path d="M0 0 C0.99 0 1.98 0 3 0 C3.13277344 0.62648437 3.26554687 1.25296875 3.40234375 1.8984375 C3.57894531 2.71570312 3.75554688 3.53296875 3.9375 4.375 C4.19853516 5.59316406 4.19853516 5.59316406 4.46484375 6.8359375 C4.92330693 9.029463 4.92330693 9.029463 6 11 C0.375 11.25 0.375 11.25 -3 9 C-2.5020163 5.26512223 -2.12508244 3.18762365 0 0 Z " fill="#E8E9EA" transform="translate(54,59)"/>
<path d="M0 0 C4.55555556 0.55555556 4.55555556 0.55555556 6 2 C6.125 4.5 6.125 4.5 6 7 C5 8 5 8 1.9375 8.0625 C0.968125 8.041875 -0.00125 8.02125 -1 8 C-1.625 5.125 -1.625 5.125 -2 2 C-1.34 1.34 -0.68 0.68 0 0 Z " fill="#E1BB9A" transform="translate(59,44)"/>
<path d="M0 0 C0.66 0 1.32 0 2 0 C2 0.99 2 1.98 2 3 C2.99 3.33 3.98 3.66 5 4 C4.67 5.65 4.34 7.3 4 9 C1.625 9.625 1.625 9.625 -1 10 C-1.66 9.34 -2.32 8.68 -3 8 C-2.625 5.375 -2.625 5.375 -2 3 C-1.34 3 -0.68 3 0 3 C0 2.01 0 1.02 0 0 Z " fill="#867039" transform="translate(60,78)"/>
<path d="M0 0 C2.1875 -0.375 2.1875 -0.375 5 0 C8.46473729 3.23375481 9.87362907 4.63519393 10.3125 9.375 C10.1578125 10.674375 10.1578125 10.674375 10 12 C6.535 13.485 6.535 13.485 3 15 C2.34 14.34 1.68 13.68 1 13 C2.98 12.34 4.96 11.68 7 11 C7.20086443 7.28400809 7.1519437 6.22791555 5 3 C2.43717258 2.27034634 2.43717258 2.27034634 0 2 C0 1.34 0 0.68 0 0 Z " fill="#242E32" transform="translate(63,57)"/>
<path d="M0 0 C2.625 0.375 2.625 0.375 5 1 C5.33 2.65 5.66 4.3 6 6 C3.53721199 7.231394 1.7204945 7.07159196 -1 7 C-1.625 4.625 -1.625 4.625 -2 2 C-1.34 1.34 -0.68 0.68 0 0 Z " fill="#6A5A33" transform="translate(59,28)"/>
<path d="M0 0 C0.66 0 1.32 0 2 0 C2.33 1.65 2.66 3.3 3 5 C3.66 5 4.32 5 5 5 C5.66 6.98 6.32 8.96 7 11 C5.02 11.99 5.02 11.99 3 13 C0.41073669 10.41073669 0.62601957 8.97294721 0.375 5.375 C0.30023438 4.37210938 0.22546875 3.36921875 0.1484375 2.3359375 C0.09945312 1.56507812 0.05046875 0.79421875 0 0 Z " fill="#674047" transform="translate(57,57)"/>
<path d="M0 0 C0.66 0.33 1.32 0.66 2 1 C0.41600334 7.19198693 -2.5547994 10.15118979 -7.5625 13.9375 C-10 15 -10 15 -12.3125 14.1875 C-12.869375 13.795625 -13.42625 13.40375 -14 13 C-12.7625 12.608125 -11.525 12.21625 -10.25 11.8125 C-6.26152391 10.31153638 -4.28549741 8.69195735 -2 5 C-0.75983331 2.3205355 -0.75983331 2.3205355 0 0 Z " fill="#222D30" transform="translate(78,62)"/>
<path d="M0 0 C1.67542976 0.28604898 3.34385343 0.61781233 5 1 C4.34 2.65 3.68 4.3 3 6 C1.35 6 -0.3 6 -2 6 C-1.125 1.125 -1.125 1.125 0 0 Z " fill="#816C38" transform="translate(33,54)"/>
<path d="M0 0 C1.2065625 0.0309375 1.2065625 0.0309375 2.4375 0.0625 C2.1075 1.7125 1.7775 3.3625 1.4375 5.0625 C-0.2125 5.3925 -1.8625 5.7225 -3.5625 6.0625 C-3.605221 4.39638095 -3.60313832 2.72867115 -3.5625 1.0625 C-2.5625 0.0625 -2.5625 0.0625 0 0 Z " fill="#88713A" transform="translate(88.5625,55.9375)"/>
<path d="M0 0 C1.32 0.66 2.64 1.32 4 2 C3.67 3.65 3.34 5.3 3 7 C1.35 7.33 -0.3 7.66 -2 8 C-2 7.01 -2 6.02 -2 5 C-0.02 5.495 -0.02 5.495 2 6 C1.2236068 2.9254644 1.2236068 2.9254644 -1 1 C-0.67 0.67 -0.34 0.34 0 0 Z " fill="#201E1A" transform="translate(61,80)"/>
<path d="M0 0 C1.65 0.33 3.3 0.66 5 1 C4.67 1.66 4.34 2.32 4 3 C3.01 3 2.02 3 1 3 C0.67 4.32 0.34 5.64 0 7 C-0.66 6.01 -1.32 5.02 -2 4 C-1.34 2.68 -0.68 1.36 0 0 Z " fill="#24211A" transform="translate(85,54)"/>
</svg>
